<svg xmlns="http://www.w3.org/2000/svg" width="1210" height="296"><path d="M349.606 202.376a9.048 9.048 0 002.012 6.029 11.919 11.919 0 005.175 3.541 56.51 56.51 0 007.042 2.011q3.882.86 7.762 1.961a34.187 34.187 0 017.042 2.824 13.406 13.406 0 015.175 5.169 16.651 16.651 0 012.012 8.517 18.181 18.181 0 01-5.941 13.5q-5.942 5.743-16.05 5.742t-16.435-4.644a14.8 14.8 0 01-6.324-12.586h9.3a10.373 10.373 0 003.593 7.273q3.209 2.78 9.535 2.776t10.06-3.253a9.828 9.828 0 003.737-7.611q0-4.352-2.012-6.7a12.128 12.128 0 00-5.175-3.5 51.936 51.936 0 00-7.043-1.961q-3.88-.813-7.761-1.963a34.286 34.286 0 01-7.043-2.918 13.677 13.677 0 01-5.174-5.264 17.137 17.137 0 01-2.012-8.664 16.935 16.935 0 015.989-13.542Q353.054 184 362.686 184t15.331 4.449a17.293 17.293 0 016.564 12.3H374.9a9.785 9.785 0 00-3.689-6.7q-3.306-2.775-8.912-2.776a14.237 14.237 0 00-9.15 2.824q-3.549 2.821-3.543 8.279zm127.441 49.291A32.957 32.957 0 01453 242.049q-9.774-9.62-9.774-24.311T453 193.52a33.137 33.137 0 0124.047-9.52q14.277 0 24 9.522t9.726 24.265q0 14.74-9.726 24.312t-24 9.568zm17.823-14.931q6.993-7.178 7-18.951t-7-18.9q-7-7.128-17.871-7.13t-17.918 7.13q-7.043 7.129-7.043 18.9t7.091 18.951q7.09 7.179 17.918 7.178t17.823-7.178zm72.924-52.069h8.719V244.3H599.8v6.7h-32v-66.333zm89.022 43.072v-43.072h8.815v43.072q0 8.235 4.358 12.3t12.026 4.069q7.665 0 12.075-4.069t4.406-12.3v-43.072h8.721v43.072q0 11.679-7.14 17.8t-18.11 6.125q-10.972 0-18.062-6.125t-7.089-17.8zm107.419-36.084v-6.988h43.789v6.988H790.49V251h-8.721v-59.345h-17.534zM964.605 252a32.957 32.957 0 01-24.05-9.618q-9.772-9.62-9.775-24.311t9.775-24.217a33.133 33.133 0 0124.05-9.523q14.279 0 24 9.523t9.724 24.265q0 14.74-9.724 24.311t-24 9.57zm17.823-14.93q6.995-7.179 7-18.951t-7-18.9q-7-7.128-17.87-7.13t-17.919 7.13q-7.041 7.131-7.044 18.905t7.092 18.951q7.089 7.177 17.918 7.177t17.823-7.181zm117.082-52.4h8.72V251h-8.72l-35.07-52.643V251h-8.72v-66.333h8.72l35.07 52.644v-52.644zM865.042 251v-66.333h8.721V251h-8.721zM891.9 64.277a14.75 14.75 0 00-9.59 3.006 10.119 10.119 0 00-3.711 8.321q0 5.317 2.732 8.321a17.441 17.441 0 007.208 4.614 90.55 90.55 0 009.8 2.867q5.316 1.261 10.638 3.077a52.53 52.53 0 019.8 4.474 19.385 19.385 0 017.21 7.763 25.928 25.928 0 012.732 12.375q0 12.031-9.591 20.7t-25.48 8.67q-15.891 0-25.69-7.48t-9.8-21.048h21q1.119 12.869 14.7 12.867 6.723 0 10.641-3.5a11.846 11.846 0 003.92-9.3 10.407 10.407 0 00-5.18-9.16 38.743 38.743 0 00-12.531-5.034q-7.349-1.679-14.77-4.056a27.564 27.564 0 01-12.6-8.321q-5.179-5.941-5.18-15.733 0-13.283 9.661-21.256t24.85-7.972q15.188 0 24.43 6.922t10.08 21.047h-21.56a13.252 13.252 0 00-4.2-8.879 13.665 13.665 0 00-9.519-3.285zM964.034 44v37.617q7.421-12.722 24.08-12.726 13.3 0 21.7 8.741t8.4 24.263v45.59h-19.6v-42.793q0-9.089-4.621-13.916t-12.6-4.823q-7.977 0-12.669 4.823t-4.69 13.916v42.793H944.3V44h19.739zm81.126 93.557q-11.34-11.048-11.34-28.948T1045.3 79.8q11.475-10.91 28.49-10.909t28.49 10.909q11.475 10.908 11.48 28.808t-11.56 28.948q-11.55 11.047-28.63 11.047t-28.41-11.047zm28.41-5.595a19.213 19.213 0 0014.22-6.082q5.94-6.084 5.94-17.2t-5.88-17.131a19.136 19.136 0 00-14.2-6.013 18.683 18.683 0 00-14.07 6.013q-5.745 6.017-5.74 17.2t5.74 17.2a18.594 18.594 0 0013.99 6.012zM355.422 134.2Q341 120.075 341 98.4t14.49-35.8q14.49-14.123 35.49-14.125a50.606 50.606 0 0128.35 8.112 44.532 44.532 0 0117.71 22.8h-23.66q-6.582-12.865-22.4-12.866-13.3 0-21.63 8.741t-8.331 23.213q0 14.477 8.331 23.215a27.128 27.128 0 0020.44 8.741q12.108 0 19.04-5.943t8.61-16.013h-32.479V93.5h53.622v14.963q-2.522 15.941-15.681 27.9t-33.11 11.957a47.407 47.407 0 01-34.37-14.12zm98.7 13.285V44h19.74v103.485h-19.74zm46.759-9.929q-11.34-11.048-11.34-28.948t11.48-28.808q11.477-10.91 28.49-10.909T558 79.8q11.48 10.908 11.48 28.808t-11.549 28.948Q546.381 148.6 529.3 148.6t-28.42-11.044zm28.421-5.595a19.193 19.193 0 0014.209-6.082q5.949-6.084 5.951-17.2t-5.882-17.133a19.152 19.152 0 00-14.209-6.013 18.7 18.7 0 00-14.071 6.013q-5.74 6.017-5.74 17.2t5.74 17.2a18.612 18.612 0 0014 6.015zm75.6-49.924q8.256-13.142 24.221-13.146t26.318 11.118Q665.8 91.126 665.8 108.677t-10.36 28.739q-10.359 11.19-26.111 11.187T604.9 134.478v13.007h-19.742V44H604.9v38.037zm34.789 43.353q6.09-6.154 6.092-16.782t-6.092-16.642a20.05 20.05 0 00-28.7.069q-6.089 6.084-6.089 16.713t6.089 16.711a19.887 19.887 0 0028.697-.069zm52.119 11.957q-10.433-11.257-10.43-28.739t10.36-28.6q10.359-11.117 26.32-11.118t24.361 13.146V70.009h19.6v77.476h-19.6v-13.007q-8.821 14.13-24.5 14.125a34.1 34.1 0 01-26.114-11.256zm44.451-11.888q6.159-6.084 6.16-16.711t-6.16-16.713a20.133 20.133 0 00-28.77-.069q-6.091 6.014-6.091 16.642t6.16 16.782a19.888 19.888 0 0028.698.069zm41.262 22.026V44h19.739v103.485H777.52zm396.26 55.225a9.05 9.05 0 002.01 6.029 11.935 11.935 0 005.17 3.541 56.6 56.6 0 007.05 2.011q3.87.86 7.76 1.962a34.035 34.035 0 017.04 2.824 13.461 13.461 0 015.18 5.168 16.665 16.665 0 012.01 8.518 18.183 18.183 0 01-5.94 13.5Q1198.12 252 1188.01 252t-16.44-4.641a14.807 14.807 0 01-6.32-12.586h9.29a10.412 10.412 0 003.6 7.274q3.21 2.778 9.53 2.776t10.06-3.254a9.833 9.833 0 003.74-7.611q0-4.352-2.01-6.7a12.134 12.134 0 00-5.18-3.5 51.375 51.375 0 00-7.04-1.962 99.27 99.27 0 01-7.76-1.963 33.981 33.981 0 01-7.04-2.917 13.673 13.673 0 01-5.18-5.265 17.145 17.145 0 01-2.01-8.664 16.917 16.917 0 015.99-13.542q5.985-5.121 15.62-5.121t15.33 4.45a17.27 17.27 0 016.56 12.3h-9.68a9.734 9.734 0 00-3.69-6.7q-3.3-2.776-8.91-2.776a14.265 14.265 0 00-9.15 2.824q-3.54 2.831-3.54 8.288zM1149.1 82.037q8.25-13.142 24.22-13.146t26.32 11.118q10.35 11.117 10.36 28.668t-10.36 28.739q-10.365 11.19-26.11 11.187t-24.43-14.125v49.927h-19.74V70.009h19.74v12.028zm34.79 43.353q6.09-6.154 6.09-16.782t-6.09-16.642a20.05 20.05 0 00-28.7.069q-6.09 6.084-6.09 16.713t6.09 16.711a19.887 19.887 0 0028.7-.069z" fill-rule="evenodd"/><path data-name="Brand Mark" d="M199.031 194.564h-49.4v-50.686H298l-.349 151.944-48.075.178-.371-57.6a137 137 0 01-108.72 57.276c-.942.015-1.874.084-2.82.084A137.309 137.309 0 015.691 196.124c-.288-.911-.6-1.809-.86-2.728l-.022.013c-.022-.122-.049-.242-.073-.364a137.926 137.926 0 01-3.1-13.836l.181-.1a82.188 82.188 0 01-1.554-12.528 81.209 81.209 0 010-13c.049-.66.1-1.35.155-1.957.195-3.671.467-7.348.9-11.05a171.481 171.481 0 012.241-13.925A148.063 148.063 0 0177.391 19.01C95.644 7.592 118.688-.643 148.322.033a161.335 161.335 0 0116.634 1.259c68.785 8.8 113.938 61.055 127.983 111.234-13.242-.131-72.282-.521-73.465-.53-.117-.237-.226-.472-.345-.71-19.26-48.24-39.475-53.132-52.258-60.343-43.741-19.431-95.319-5.214-128.923 29.191.016.009.04.007.057.016-13.1 14.444-30.914 36.817-34.2 73.433-.033.377-.088.727-.119 1.1.111-.37.237-.733.349-1.1 13.772-44.936 51.915-76.891 95.711-79.876A88.525 88.525 0 0089.677 79.7a70.473 70.473 0 00-28.789 33.72 80.528 80.528 0 00-7.678 34.322c0 38.058 26.488 70.164 62.74 80.343a89.625 89.625 0 0010.4 2.425 75.85 75.85 0 005.335.532q4.356.422 8.828.425a88.667 88.667 0 0066.39-29.381 68.536 68.536 0 006.405-7.519h-14.28z" fill="#2d9f48" fill-rule="evenodd"/></svg>